<mxfile host="Electron" agent="Mozilla/5.0 (Windows NT 10.0; Win64; x64) AppleWebKit/537.36 (KHTML, like Gecko) draw.io/28.1.2 Chrome/138.0.7204.243 Electron/37.4.0 Safari/537.36" version="28.1.2">
  <diagram name="PÃ¡gina-1" id="9S93ZHecZLBhJ5nquxwZ">
    <mxGraphModel dx="635" dy="349" grid="1" gridSize="10" guides="1" tooltips="1" connect="1" arrows="1" fold="1" page="1" pageScale="1" pageWidth="583" pageHeight="413" math="0" shadow="0">
      <root>
        <mxCell id="0" />
        <mxCell id="1" parent="0" />
        <mxCell id="nr5hWVB6F6ckbUNoP0wz-1" value="&lt;p style=&quot;margin:0px;margin-top:4px;text-align:center;&quot;&gt;&lt;b&gt;Farola&lt;/b&gt;&lt;/p&gt;&lt;hr size=&quot;1&quot; style=&quot;border-style:solid;&quot;&gt;&lt;p style=&quot;margin:0px;margin-left:4px;&quot;&gt;- isOn: boolean&lt;/p&gt;&lt;hr size=&quot;1&quot; style=&quot;border-style:solid;&quot;&gt;&lt;p style=&quot;margin:0px;margin-left:4px;&quot;&gt;&lt;span style=&quot;background-color: transparent; color: light-dark(rgb(0, 0, 0), rgb(255, 255, 255));&quot;&gt;&amp;nbsp;+&amp;nbsp;&lt;/span&gt;&lt;span id=&quot;docs-internal-guid-d78d7079-7fff-7d97-8a95-34e12d3287dd&quot;&gt;&lt;span style=&quot;font-size: 9pt; color: rgb(37, 37, 37); background-color: transparent; font-variant-numeric: normal; font-variant-east-asian: normal; font-variant-alternates: normal; font-variant-position: normal; font-variant-emoji: normal; vertical-align: baseline; white-space-collapse: preserve;&quot;&gt;&lt;font face=&quot;Helvetica&quot;&gt;pairWithNeighbor&lt;/font&gt;&lt;/span&gt;&lt;/span&gt;&lt;span style=&quot;background-color: transparent; color: light-dark(rgb(0, 0, 0), rgb(255, 255, 255));&quot;&gt;(Farola)&lt;/span&gt;&lt;/p&gt;&lt;p style=&quot;margin:0px;margin-left:4px;&quot;&gt;&lt;font face=&quot;Helvetica&quot;&gt;&lt;span style=&quot;background-color: transparent; color: light-dark(rgb(0, 0, 0), rgb(255, 255, 255));&quot;&gt;+&amp;nbsp;&lt;/span&gt;&lt;span style=&quot;background-color: transparent; color: rgb(37, 37, 37); font-size: 9pt; white-space-collapse: preserve;&quot;&gt;getNeighbors:&lt;/span&gt;&lt;span style=&quot;background-color: transparent; color: rgb(37, 37, 37); font-size: 9pt; white-space-collapse: preserve;&quot;&gt;Farolas&lt;/span&gt;&lt;/font&gt;&lt;/p&gt;&lt;p style=&quot;margin:0px;margin-left:4px;&quot;&gt;&lt;span style=&quot;background-color: transparent; color: rgb(37, 37, 37); font-size: 9pt; white-space-collapse: preserve;&quot;&gt;&lt;font face=&quot;Helvetica&quot;&gt;+ turnOn(): void&lt;/font&gt;&lt;/span&gt;&lt;/p&gt;&lt;p style=&quot;margin:0px;margin-left:4px;&quot;&gt;&lt;span style=&quot;background-color: transparent; color: rgb(37, 37, 37); font-size: 9pt; white-space-collapse: preserve;&quot;&gt;&lt;font face=&quot;Helvetica&quot;&gt;+ turnOff(): void&lt;/font&gt;&lt;/span&gt;&lt;/p&gt;&lt;p style=&quot;margin:0px;margin-left:4px;&quot;&gt;&lt;font face=&quot;Helvetica&quot; color=&quot;#252525&quot;&gt;&lt;span style=&quot;white-space-collapse: preserve;&quot;&gt;+ isOn ():boolean&lt;/span&gt;&lt;/font&gt;&lt;/p&gt;" style="verticalAlign=top;align=left;overflow=fill;html=1;whiteSpace=wrap;" vertex="1" parent="1">
          <mxGeometry x="150" y="135" width="200" height="143" as="geometry" />
        </mxCell>
        <mxCell id="nr5hWVB6F6ckbUNoP0wz-20" value="" style="endArrow=diamondThin;endFill=0;endSize=24;html=1;rounded=0;entryX=0.997;entryY=0.086;entryDx=0;entryDy=0;entryPerimeter=0;" edge="1" parent="1" target="nr5hWVB6F6ckbUNoP0wz-1">
          <mxGeometry width="160" relative="1" as="geometry">
            <mxPoint x="350" y="190" as="sourcePoint" />
            <mxPoint x="440" y="110" as="targetPoint" />
            <Array as="points">
              <mxPoint x="440" y="190" />
              <mxPoint x="440" y="150" />
            </Array>
          </mxGeometry>
        </mxCell>
      </root>
    </mxGraphModel>
  </diagram>
</mxfile>
